<?xml version="1.0" encoding="UTF-8" standalone="no"?>
<!-- Created with Inkscape (http://www.inkscape.org/) -->

<svg
   version="1.1"
   id="svg1"
   width="169"
   height="185"
   viewBox="0 0 169 185"
   sodipodi:docname="l56521.svg"
   inkscape:version="1.3 (0e150ed6c4, 2023-07-21)"
   xmlns:inkscape="http://www.inkscape.org/namespaces/inkscape"
   xmlns:sodipodi="http://sodipodi.sourceforge.net/DTD/sodipodi-0.dtd"
   xmlns="http://www.w3.org/2000/svg"
   xmlns:svg="http://www.w3.org/2000/svg">
  <defs
     id="defs1" />
  <sodipodi:namedview
     id="namedview1"
     pagecolor="#ffffff"
     bordercolor="#000000"
     borderopacity="0.25"
     inkscape:showpageshadow="2"
     inkscape:pageopacity="0.0"
     inkscape:pagecheckerboard="0"
     inkscape:deskcolor="#d1d1d1"
     inkscape:zoom="2.7081081"
     inkscape:cx="84.560878"
     inkscape:cy="122.04092"
     inkscape:window-width="1366"
     inkscape:window-height="697"
     inkscape:window-x="-8"
     inkscape:window-y="-8"
     inkscape:window-maximized="1"
     inkscape:current-layer="g1" />
  <g
     inkscape:groupmode="layer"
     inkscape:label="Image"
     id="g1">
    <path
       style="fill:#000000"
       d="m 76.10778,181.25169 c -12.1054,-3.80224 -15,-5.5115 -15,-8.85753 0,-1.14522 -2.67362,-2.39606 -9.51408,-4.45111 -8.86212,-2.6624 -9.63844,-2.74573 -11.32874,-1.21603 -0.99806,0.90323 -2.42183,1.64224 -3.16393,1.64224 -2.71701,0 -24.53715,-7.21293 -25.95058,-8.57831 C 9.2114401,157.91787 0.85855906,60.912205 2.3805111,57.941815 3.0410001,56.652745 2.9358301,50.434392 2.0629781,39.166772 1.2641721,28.855006 1.1166971,21.972625 1.6828271,21.42586 2.1915541,20.934536 13.83915,16.151395 27.56638,10.796658 c 18.4477,-7.1961062 26.01287,-9.6947432 29,-9.5781732 9.27221,0.361842 42.98745,5.211074 44.93307,6.462684 1.75919,1.131673 2.93634,1.138541 7.10833,0.04147 6.02856,-1.58527 13.91514,-1.736757 16.56574,-0.318197 1.06384,0.569351 1.93426,1.908978 1.93426,2.9769482 0,1.97729 -0.71576,2.544877 -9.47607,7.514362 -4.77559,2.709062 -4.87632,2.854452 -2.5,3.608623 1.36184,0.432208 13.27607,2.391596 26.47607,4.354197 13.2,1.9626 24.84625,3.829359 25.88057,4.148353 1.71693,0.529525 1.83701,1.412519 1.38007,10.148331 l -0.50048,9.568342 -4.88008,4.578498 c -2.68404,2.518174 -7.74042,7.071962 -11.23639,10.119532 l -6.35631,5.54102 -1.14369,33.721412 -1.14369,33.7214 -24.04231,23.9819 C 91.6453,189.23739 95.67216,187.39673 76.10778,181.25169 Z m 19.8,0.91757 c 0.81304,-0.81303 1.2,-5.48889 1.2,-14.5 v -13.3 h -4.90024 c -4.3093,0 -17.48279,-3.39333 -43.34876,-11.16611 -3.71196,-1.11545 -6.53782,-2.3698 -6.2797,-2.78745 0.25813,-0.41765 9.14518,1.81558 19.74901,4.96274 10.60383,3.14715 19.51494,5.44506 19.80247,5.10646 0.28753,-0.3386 0.36495,-8.7343 0.17205,-18.65711 l -0.35073,-18.04147 -9.17205,-2.38025 c -5.04462,-1.30915 -9.95955,-2.58047 -10.92205,-2.82517 -1.12847,-0.28689 -1.75,0.12926 -1.75,1.17173 0,2.06661 0.68328,2.14317 -13.42676,-1.50448 -8.86131,-2.29079 -12.60531,-3.73681 -14.07324,-5.43544 -1.38717,-1.60518 -4.69186,-2.987249 -10.78508,-4.510469 -4.83179,-1.20788 -9.01462,-1.96661 -9.29516,-1.68607 -0.79456,0.79456 2.29976,33.889659 3.24238,34.678789 0.46083,0.38579 3.42536,1.48332 6.58786,2.43897 3.1625,0.95564 5.75,2.11832 5.75,2.58373 0,0.46541 -4.1625,-0.40407 -9.25,-1.93218 -5.0875,-1.52811 -9.3441199,-2.49439 -9.4591699,-2.1473 -0.11504,0.34709 0.33496,6.44289 0.9999999,13.5462 l 1.20917,12.91513 11.46679,3.83487 c 6.30673,2.10919 11.81923,3.83488 12.25,3.83488 0.43077,0 0.78321,-1.35 0.78321,-3 0,-3.94224 1.4664,-3.86422 15.5,0.82468 l 11,3.67532 0.30814,3.71258 0.30813,3.71258 11.69187,3.59399 c 6.43052,1.9767 12.14186,3.75801 12.69186,3.95847 2.29498,0.83648 7.18515,0.43724 8.3,-0.67762 z m -65.00172,-40.3 c -1.44672,-5.19778 -1.43186,-5.5 0.27059,-5.5 0.99078,0 3.05918,-1.74977 4.59644,-3.88837 3.50297,-4.87327 8.15257,-8.11163 11.64657,-8.11163 3.48551,0 3.39962,1.08803 -0.2498,3.16423 -1.6089,0.91533 -4.32002,3.58963 -6.02471,5.94288 -2.72935,3.76776 -2.9047,4.38763 -1.46854,5.19134 1.40198,0.78459 1.09713,1.45931 -2.17192,4.80712 -2.09154,2.14194 -4.08742,3.89443 -4.43529,3.89443 -0.34787,0 -1.32137,-2.475 -2.16334,-5.5 z m 112.14775,-37.37481 c 0.62572,-17.256149 0.91138,-31.601109 0.63479,-31.877699 -0.27659,-0.27659 -2.87622,1.63093 -5.77696,4.23894 -2.90073,2.60801 -6.28594,5.12656 -7.52268,5.59676 -1.95744,0.74422 -7.87132,0.14866 -15.93534,-1.60478 -1.52538,-0.33168 -4.22536,1.1522 -9.25,5.08371 l -7.09584,5.55211 v 34.289259 c 0,18.85909 0.29529,38.44931 0.6562,43.53381 l 0.6562,9.24456 21.24797,-21.34093 21.24797,-21.34093 z M 41.54044,163.47823 c 0.29922,-0.48415 -0.57572,-1.09433 -1.94431,-1.35595 -2.09124,-0.39976 -2.48835,-0.0932 -2.48835,1.92084 0,2.06375 0.26997,2.25202 1.94431,1.35595 1.06937,-0.57231 2.18912,-1.43669 2.48835,-1.92084 z m 53.63309,-11.14415 c 1.71911,-0.92005 1.93368,-2.17136 1.92908,-11.25 -0.003,-5.61815 -0.29571,-14.60232 -0.65082,-19.96482 l -0.64565,-9.75 h -5.86988 -5.86989 l 0.27071,20.24086 0.2707,20.24085 3,0.64083 c 4.58561,0.97953 5.47543,0.96098 7.56575,-0.15772 z M 13.10778,129.92954 c 0,-0.24185 -0.68721,-8.67935 -1.52713,-18.75 C 10.33201,96.208491 9.7393101,92.631631 8.3306501,91.566231 c -1.47635,-1.11659 -1.76582,-1.03044 -2.02303,0.60208 -0.41181,2.61365 2.55946,36.002469 3.31225,37.220499 0.5931699,0.95978 3.4879099,1.40855 3.4879099,0.54073 z M 81.81657,110.74472 C 80.91241,109.84056 12.75935,92.384361 12.22392,92.919801 c -0.24721,0.2472 -0.26148,0.63745 -0.0317,0.86722 0.66279,0.66279 69.36905,18.292439 69.83224,17.918559 0.22917,-0.18497 0.13562,-0.61736 -0.20788,-0.96086 z m -22.70879,-1.65686 c 0,-1.23209 -24.94054,-8.11139 -25.90626,-7.14567 -0.94281,0.94281 1.35744,1.84976 12.6314,4.98034 13.994,3.88589 13.27486,3.76859 13.27486,2.16533 z m 34.75,0.65111 c 2.09944,-0.56262 2.25004,-1.14725 2.25047,-8.73634 l 4.6e-4,-8.133369 h -5.99767 -5.99766 l -0.003,8.176679 c -0.002,6.94784 0.2602,8.2454 1.7472,8.63399 2.68635,0.70202 5.52264,0.72295 8,0.059 z m -11.75,-1.72505 c 0,-0.74544 -1.38389,-1.75794 -3.07533,-2.25 -4.1002,-1.19281 -4.15524,-2.67967 -0.14289,-3.8604 4.68488,-1.37863 3.70614,-3.651549 -2.22379,-5.164289 -4.89643,-1.24909 -4.98134,-1.22954 -9.6986,2.23325 l -4.75892,3.493369 -13.14847,-3.497649 c -13.18895,-3.50842 -17.56861,-5.43629 -18.62928,-8.20034 -0.92337,-2.40627 0.26641,-2.69665 5.70417,-1.39215 3.41174,0.81846 5.46928,0.89738 6.13149,0.23517 0.66221,-0.6622 -1.26763,-1.50459 -5.75092,-2.51031 -7.18279,-1.61129 -6.73285,-1.69362 -21.40746,3.91687 -0.825,0.31542 13.8,4.53692 32.5,9.381109 18.7,4.84419 34.1125,8.84432 34.25,8.88917 0.1375,0.0449 0.25,-0.52836 0.25,-1.2738 z m 0,-4.70368 c 0,-1.21486 -3.70413,-1.22872 -4.45322,-0.0167 -0.31419,0.50837 0.22175,1.1042 1.19098,1.32406 2.0799,0.47184 3.26224,-0.002 3.26224,-1.30736 z m -19,-2.42679 c 0,-0.2672 -1.6875,-1.574029 -3.75,-2.904079 -3.3747,-2.17625 -25.92433,-8.26911 -26.91977,-7.27367 -1.15644,1.15645 6.5325,4.52468 16.66977,7.3024 11.93172,3.269419 14,3.694209 14,2.875349 z M 67.247,97.455341 c 1.29843,-1.05266 2.13578,-2.11877 1.86078,-2.36915 -1.36927,-1.24665 -24.30196,-5.81497 -25.11407,-5.00286 -0.55159,0.5516 1.97437,1.59456 6.37379,2.63172 4.16351,0.98155 8.5634,2.76063 10.26388,4.15016 3.62689,2.96366 3.68187,2.96857 6.61562,0.59013 z m 13.64619,-10.72924 c -0.73931,-0.73931 -8.27935,-2.93638 -16.75565,-4.88237 l -15.41146,-3.53816 -7.30915,2.66579 c -4.02003,1.46619 -7.30603,2.94302 -7.30222,3.28185 0.004,0.33883 10.69131,3.13838 23.75,6.22122 l 23.74307,5.60517 0.31481,-4.00465 c 0.18919,-2.40674 -0.22156,-4.54101 -1.0294,-5.34885 z m 21.12949,-0.57096 c 5.60877,-4.05333 6.82575,-5.35068 5.46644,-5.8275 -1.22111,-0.42835 -1.39154,-0.83404 -0.56496,-1.34489 0.65099,-0.40234 1.18362,-2.75476 1.18362,-5.2276 v -4.49607 l -8.00634,7.05509 c -7.26089,6.3982 -8.40555,7.05509 -12.29384,7.05509 -2.35811,0 -21.99811,-4.05 -43.64442,-9 -21.64632,-4.95 -39.5140999,-9 -39.7061699,-9 -1.21631,0 -0.0809,5.88898 1.23256,6.39301 2.51284,0.96427 3.41821,0.71943 3.41821,-0.92439 0,-0.84227 0.61272,-1.76651 1.3615899,-2.05388 1.49106,-0.57217 68.03403,14.19521 70.92429,15.7397 0.98223,0.52488 2.05098,2.27986 2.375,3.89994 0.56196,2.80982 0.83001,2.94562 5.81405,2.94562 4.70937,0 5.93688,-0.5145 12.43997,-5.21412 z M 9.6194201,82.619261 c -0.39784,-4.2625 -1.23821,-8.08061 -1.86749,-8.48469 -2.86509,-1.83975 -3.41097,-0.72519 -2.93111,5.98469 0.36594,5.11684 0.96975,7.17341 2.49563,8.5 1.1071,0.9625 2.24092,1.75 2.51961,1.75 0.2786799,0 0.1811899,-3.4875 -0.21664,-7.75 z m 19.4883599,1.58545 c 7.975,-2.76506 15.08242,-5.35073 15.79426,-5.74593 0.73964,-0.41064 -2.00041,-1.43353 -6.39414,-2.38701 -7.55,-1.63841 -7.75638,-1.63025 -11.46387,0.45348 -3.41817,1.92112 -4.23132,2.00714 -8.59255,0.90897 -2.64941,-0.66713 -5.39646,-1.69379 -6.10456,-2.28146 -2.09749,-1.74076 -2.3807299,-0.42567 -1.64855,7.65416 0.58686,6.47629 0.94434,7.57042 2.30208,7.046 0.88403,-0.34146 8.13233,-2.88315 16.10733,-5.64821 z m 71.28216,-9.77455 c 7.22844,-6.98326 8.03725,-8.11084 6.71784,-9.3656 -0.825,-0.78458 -7.125,-2.440073 -14,-3.678873 -6.875,-1.238799 -13.22698,-2.889254 -14.11551,-3.667678 -1.98888,-1.742403 -25.43791,-6.347631 -32.34215,-6.351774 -4.19199,-0.0025 -19.07475,-2.379371 -28.33529,-4.525299 -1.79231,-0.415329 -3.59364,0.70929 -8.25,5.150711 -3.2763799,3.12513 -5.9570499,6.270492 -5.9570499,6.989693 0,1.211155 1.57665,1.826306 10.9999999,4.29181 1.925,0.50365 2.6,0.95098 1.5,0.99405 -1.1,0.0431 -4.475,-0.586 -7.4999999,-1.39794 -6.55706,-1.759989 -6,-1.703634 -6,-0.606988 0,0.491158 0.7875,1.218038 1.75,1.615278 4.56775,1.88524 78.3346999,18.34161 82.5321599,18.41177 4.65441,0.0778 5.0017,-0.13215 13,-7.85916 z m -22.95616,4.09219 c -3.9457,-0.9092 -7.5457,-2.04649 -8,-2.52732 -0.46435,-0.49147 0.0497,-0.62134 1.174,-0.29663 7.58575,2.19076 16.46903,3.69262 19.04001,3.21902 1.91572,-0.35289 5.05926,-2.61914 8.5,-6.12782 3.00299,-3.0623 6.35999,-6.03664 7.45999,-6.60964 1.1,-0.57301 -0.7,1.74432 -4,5.1496 -9.39882,9.69869 -11.10105,10.20517 -24.174,7.19279 z M 44.91976,66.968241 c -7.52841,-1.70444 -13.94784,-3.36841 -14.26541,-3.69772 -0.91534,-0.949194 9.20032,-9.927583 10.64926,-9.452008 0.7173,0.23543 6.70417,1.59339 13.30417,3.017689 16.12762,3.480385 15.3412,3.040974 11.90879,6.653979 -6.65652,7.00675 -6.27918,6.94598 -21.59681,3.47806 z m 18.5291,-2.43623 3.74697,-3.83724 -12.29402,-2.681851 c -6.76172,-1.475018 -12.9902,-2.673258 -13.84108,-2.662755 -0.85088,0.0105 -3.2339,1.746585 -5.2956,3.85796 l -3.74855,3.838866 11.2956,2.57034 c 15.29399,3.4802 15.69994,3.45832 20.13668,-1.08532 z m -4.3294,-8.453638 c -8.51857,-1.677627 -14.97067,-3.222781 -14.33798,-3.433677 1.21115,-0.403715 32.42715,5.492074 33.20688,6.271807 0.84869,0.848692 -3.37079,0.214027 -18.8689,-2.83813 z m 71.15643,19.040888 0.16811,-6.25 0.58189,5.67628 0.58189,5.67628 16.95886,-14.92381 c 9.32738,-8.208087 17.34158,-15.60767 17.80934,-16.443513 0.46776,-0.835843 0.71127,-3.049005 0.54114,-4.918139 l -0.30934,-3.398426 -15.99012,13.031709 c -8.79457,7.16744 -16.98649,13.410529 -18.20426,13.873519 -1.9374,0.7366 -15.91534,-1.00585 -21.55562,-2.68705 -1.54927,-0.46179 -1.75,0.2785 -1.75,6.45403 v 6.97566 l 7.75,1.49094 c 4.2625,0.82002 8.9875,1.5363 10.5,1.59173 2.70044,0.099 2.75303,-0.0118 2.91811,-6.14921 z m -103.7106,-0.0953 c 1.7107,-1.25089 1.62706,-1.38781 -1.1922,-1.95167 -1.66759,-0.33351 -4.21456,-0.9032 -5.65995,-1.26597 -2.20026,-0.55223 -2.52115,-0.38123 -1.97167,1.05069 0.57825,1.50691 0.40893,1.55579 -1.42402,0.41109 -1.14416,-0.71455 -1.85785,-1.6591 -1.58597,-2.09902 0.27189,-0.43992 0.0178,-0.79985 -0.56468,-0.79985 -0.58246,0 -1.05902,0.88713 -1.05902,1.97141 0,3.30913 9.90164,5.28344 13.45751,2.68332 z m -14.95751,-3.65473 c 0.33992,-0.55 0.14148,-1 -0.44098,-1 -0.58246,0 -1.05902,0.45 -1.05902,1 0,0.55 0.19845,1 0.44099,1 0.24254,0 0.7191,-0.45 1.05901,-1 z M 143.30026,57.228172 c 6.21913,-5.0276 14.12002,-11.408349 17.55752,-14.179443 3.533,-2.848083 6.25,-5.829785 6.25,-6.85891 0,-1.001306 -0.18034,-1.820557 -0.40076,-1.820557 -0.22042,0 -2.78217,1.977587 -5.69278,4.394637 -2.91062,2.417051 -5.78981,4.203622 -6.3982,3.970158 -0.6084,-0.233464 -4.78457,3.156373 -9.28038,7.532971 -4.49581,4.376599 -9.53628,8.762051 -11.20104,9.74545 -1.66476,0.9834 -3.08812,2.703473 -3.16302,3.822393 -0.1361,2.03318 -0.13643,2.03318 -0.54275,-0.0111 -0.35938,-1.808051 -2.09113,-2.323 -14.92013,-4.4366 -7.98245,-1.315124 -14.76957,-2.805376 -15.08247,-3.311671 -0.31291,-0.506294 0.27493,-0.672055 1.3063,-0.368358 3.29254,0.969515 25.19069,4.66209 27.64768,4.66209 1.30149,0 4.72338,-1.758586 7.6042,-3.907969 l 5.23786,-3.907969 -2.9384,-0.645382 c -2.27002,-0.498581 -4.03356,0.04914 -7.75304,2.407969 -2.64805,1.679343 -5.68207,3.053351 -6.74228,3.053351 -4.33649,0 -52.05511,-9.142212 -54.60725,-10.461976 C 68.66449,46.122877 64.91458,42.37592 61.84817,38.580684 58.78176,34.785449 54.99823,31.177514 53.44033,30.563051 51.88243,29.948588 42.50778,28.075091 32.60778,26.399725 9.3591201,22.465377 9.8130401,22.579714 10.48548,20.82736 c 0.69563,-1.812792 0.40322,-1.811256 -3.9817799,0.02092 -1.94692,0.813474 -3.30254,1.863032 -3.01248,2.332351 0.29005,0.469318 4.48494,1.438673 9.3219699,2.15412 4.83703,0.715443 9.69459,1.662362 10.79459,2.104259 3.25339,1.306963 -0.21752,0.987201 -10.88399,-1.002705 l -9.8839999,-1.84393 0.52706,8.448161 c 0.28989,4.646488 0.79013,8.711229 1.11166,9.032757 0.32153,0.321528 8.7302899,2.13192 18.6861299,4.023095 16.30282,3.096821 18.21787,3.28185 19.27234,1.862051 1.05422,-1.419473 2.94041,-1.233114 18.94247,1.871549 9.77442,1.896397 18.21192,3.720084 18.75,4.052637 0.53809,0.332552 0.97833,1.221179 0.97833,1.974726 0,0.847814 2.00128,1.785312 5.25,2.459359 15.26497,3.167184 40.59285,7.854161 42.94248,7.946601 1.98795,0.0782 5.65123,-2.28596 14,-9.035169 z m -13.03928,-3.968001 c 1.62907,-1.160001 2.74975,-2.321288 2.4904,-2.580638 -0.25935,-0.259351 -6.69776,-1.062728 -14.30757,-1.785284 -12.09141,-1.148085 -14.27735,-1.123843 -17.33603,0.192258 -4.16041,1.790164 -4.17586,1.78257 8.52632,4.192801 13.42866,2.548081 17.02625,2.544743 20.62688,-0.01914 z M 12.35629,46.289062 C 11.94461,45.916592 9.8561401,45.299839 7.7152501,44.9185 l -3.89254,-0.693344 0.63153,3.822053 c 0.34734,2.102129 0.63649,4.475879 0.64254,5.275001 0.007,0.867937 1.62095,-0.119125 4.00951,-2.451492 C 11.30547,48.723277 12.76797,46.661531 12.35629,46.289062 Z m 136.41293,-0.861589 c 4.38197,-3.326424 4.45639,-3.47048 2.22009,-4.297738 -1.86363,-0.689402 -3.37916,-0.102667 -7.78891,3.015456 -3.01129,2.129273 -5.62166,4.311197 -5.80084,4.84872 -0.17917,0.537523 0.91938,1.432843 2.44123,1.9896 2.20919,0.808217 2.93103,0.697144 3.58073,-0.550982 0.44756,-0.859797 2.85402,-3.112072 5.3477,-5.005056 z m -49.22716,2.987904 c 3.91526,-1.881577 4.63933,-1.900554 19.56572,-0.512794 8.525,0.792599 15.6125,1.446847 15.75,1.453884 0.1375,0.007 0.25,-0.396809 0.25,-0.897436 0,-0.500627 -3.81326,-1.227874 -8.47391,-1.616104 -8.03029,-0.668919 -12.13663,-2.36026 -9.57465,-3.943654 0.57671,-0.356425 1.04856,-0.219091 1.04856,0.305185 0,0.524277 1.0125,0.979007 2.25,1.010512 1.2375,0.0315 5.50689,0.535995 9.48754,1.121088 7.19603,1.057707 7.2614,1.046516 11.40003,-1.951494 2.28938,-1.658416 3.98249,-3.074619 3.76247,-3.147118 -0.22002,-0.0725 -6.66545,-0.859999 -14.32317,-1.75 -10.56126,-1.227458 -14.02044,-1.980374 -14.32613,-3.118184 -0.3232,-1.20296 -0.21618,-1.233793 0.54043,-0.155698 0.78058,1.112254 1.48983,1.061749 4.10883,-0.292588 1.74096,-0.900289 2.93236,-2.013944 2.64754,-2.474788 -0.6601,-1.068063 -14.48058,-2.257298 -30.54754,-2.628578 -9.72935,-0.224829 -14.6611,0.173412 -22.25,1.796697 -5.3625,1.147053 -9.73568,2.348667 -9.71819,2.670253 0.0175,0.321586 0.69602,1.463041 1.50785,2.536566 1.43948,1.903514 1.69814,1.843 10.44199,-2.442868 4.93127,-2.417103 9.203,-4.157687 9.49272,-3.867963 0.28972,0.289723 -3.5064,2.443428 -8.43582,4.786012 -8.87849,4.219275 -8.94832,4.281019 -7.44201,6.579946 2.1211,3.237197 6.56148,5.042565 16.09608,6.544331 l 8.19263,1.290395 4.08079,-2.700541 c 5.20273,-3.443008 8.21132,-3.98837 15.03396,-2.725177 l 5.5,1.018311 -6.30504,-0.457576 c -6.40751,-0.465012 -10.56793,0.634826 -14.69496,3.884725 -2.88981,2.275633 -0.084,2.096318 4.93428,-0.315344 z m 24.56572,-7.046115 c 1.375,-1.075541 3.175,-1.963852 4,-1.974026 0.825,-0.01017 0.0266,0.87982 -1.77417,1.977764 -4.17539,2.545738 -5.48234,2.543543 -2.22583,-0.0037 z m -75,7.616577 c 0,-0.848592 -5.08501,-1.288034 -5.58288,-0.482468 -0.29433,0.47624 0.84141,0.865891 2.52387,0.865891 1.68246,0 3.05901,-0.17254 3.05901,-0.383423 z M 162.25903,36.242627 c 2.71085,-2.269649 4.75861,-4.296839 4.55058,-4.504868 -0.20803,-0.208028 -12.21277,-2.172172 -26.6772,-4.364764 -14.46444,-2.192593 -26.87992,-4.468675 -27.58997,-5.05796 -1.42039,-1.178816 -7.43466,1.297265 -7.43466,3.060855 0,1.271244 0.94922,1.463554 26.85673,5.441105 12.29621,1.887822 22.60595,3.681614 22.91054,3.986204 0.30459,0.304591 -0.19442,1.380578 -1.10892,2.391084 -0.91449,1.010505 -1.36173,2.138264 -0.99387,2.506131 1.5913,1.591296 4.89397,0.387521 9.48677,-3.457787 z m -10.24519,0.619052 c 1.20308,-1.177332 1.05872,-1.447403 -1,-1.870755 -1.32333,-0.27213 -7.63445,-0.72866 -14.02471,-1.01451 -8.87945,-0.397197 -12.05734,-0.19895 -13.4794,0.840886 -1.69433,1.238923 -1.46012,1.417374 2.61865,1.995237 18.1279,2.568283 23.3012,2.578104 25.88546,0.04914 z m -17.11301,-4.0327 c -0.29716,-0.297156 -2.87423,-0.909231 -5.72683,-1.360166 -2.85261,-0.450936 -4.82198,-0.464892 -4.37639,-0.03101 0.70515,0.686606 2.25094,0.983377 9.22684,1.771426 0.77916,0.08802 1.17354,-0.08309 0.87638,-0.380246 z M 70.76912,29.781949 C 79.274,27.751736 82.98017,27.329821 87.98147,27.822471 l 6.37369,0.627834 14.12631,-7.63856 c 7.76947,-4.201209 14.80131,-8.318361 15.62631,-9.149227 1.25736,-1.266297 0.9823,-1.250437 -1.70034,0.09804 -4.62664,2.325656 -5.37901,1.944659 -1.29966,-0.658142 l 3.5,-2.2331542 -5.74726,-0.299822 c -6.44122,-0.336025 -19.49801,2.7394222 -26.75274,6.3014412 -2.475,1.215208 -8.775,3.238392 -14,4.495964 -5.225,1.257573 -11.075,3.10269 -13,4.10026 l -3.5,1.813765 3.16667,0.0442 c 1.74167,0.02431 3.34219,0.570753 3.55671,1.214323 0.28673,0.860193 2.21349,0.712091 7.2743,-0.559144 4.95827,-1.245478 8.63629,-1.541643 13.14674,-1.058614 5.59822,0.599518 6.76087,0.392104 10.9611,-1.955454 2.58424,-1.44436 4.87862,-2.446109 5.09862,-2.226109 0.22,0.22 -1.76093,1.62098 -4.40207,3.113289 -4.29805,2.428508 -5.4835,2.652025 -11.29449,2.129585 -5.03075,-0.452292 -8.97061,0.0013 -17.5,2.014771 -6.05417,1.429158 -11.43508,2.997413 -11.95758,3.485008 -1.33111,1.242192 -1.01367,1.193602 11.11134,-1.700776 z M 60.32116,28.548737 c 3.0519,-1.211147 0.25048,-3.478528 -5.15456,-4.17193 -3.78484,-0.48555 -5.67483,-0.264373 -7.26631,0.850344 -2.09519,1.467529 -2.03613,1.537357 2.27827,2.69374 5.21668,1.398216 7.79865,1.558045 10.1426,0.627846 z m 50.28662,0.148433 c -1.1,-0.242049 -3.20433,-0.905701 -4.67628,-1.474784 -1.47196,-0.569082 -3.72196,-0.702257 -5,-0.295945 -2.23098,0.709268 -2.2439,0.769947 -0.32372,1.5205 1.1,0.429963 4.25,0.761178 7,0.736034 2.75,-0.02514 4.1,-0.243756 3,-0.485805 z m -65.4725,-4.077908 c 2.47888,-1.754513 8.59814,-4.220112 10.4725,-4.219631 0.55,1.41e-4 0.325,0.436475 -0.5,0.969631 -1.27802,0.825922 -1.23774,0.971641 0.2722,0.984687 2.23931,0.01935 16.93232,-7.32126 18.54591,-9.265512 2.0603,-2.48251 -0.5559,-3.4107812 -13.47651,-4.7816912 L 48.29098,7.0167078 30.56757,13.899046 c -9.74788,3.785286 -17.15681,7.071209 -16.46428,7.302051 1.23719,0.412397 25.52147,4.887061 27.53199,5.073092 0.56512,0.05229 2.14012,-0.692427 3.5,-1.654927 z m 24.9725,-11.75 c 1.375,-0.786021 2.95,-1.429129 3.5,-1.429129 0.55,0 -0.125,0.643108 -1.5,1.429129 -1.375,0.786021 -2.95,1.429129 -3.5,1.429129 -0.55,0 0.125,-0.643108 1.5,-1.429129 z m -2.52215,7.791682 c 3.03719,-1.489575 5.52215,-3.071053 5.52215,-3.514395 0,-0.659098 -11.49414,4.538834 -12.91666,5.841232 -1.37994,1.263407 2.67723,-0.01326 7.39451,-2.326837 z m 23.84904,-6.466626 c 2.89669,-1.550263 0.24015,-3.453678 -5.88161,-4.2141852 -4.62796,-0.574932 -5.27084,-0.395046 -7.61436,2.1305902 -1.40779,1.517196 -2.78763,3.710204 -3.0663,4.873351 l -0.50667,2.114812 7.58125,-1.942135 c 4.16968,-1.068174 8.43915,-2.401269 9.48769,-2.962433 z m -11.80538,1.771596 c 2.21182,-0.735553 5.58682,-1.605862 7.5,-1.934021 3.31643,-0.568853 3.29113,-0.534342 -0.54301,0.740717 -2.21183,0.735553 -5.58683,1.605862 -7.5,1.934021 -3.31643,0.568853 -3.29113,0.534342 0.54301,-0.740717 z M 100.0224,9.7879778 c 1.21828,-1.218281 -2.89809,-2.033729 -23.18263,-4.592451 -20.96823,-2.644962 -22.502,-2.715162 -26.98199,-1.234953 -5.24787,1.733921 -6.26911,2.659895 -2,1.813423 1.5125,-0.299895 8.15,0.145425 14.75,0.989601 6.6,0.844176 15.26902,1.529364 19.26449,1.522641 4.48271,-0.0075 8.31199,0.547791 10,1.450228 2.38186,1.2733802 6.89971,1.3019342 8.15013,0.051511 z"
       id="path1" />
  </g>
</svg>
