<?xml version="1.0" encoding="UTF-8" standalone="no"?>
<!-- Created with Inkscape (http://www.inkscape.org/) -->

<svg
   version="1.1"
   id="svg1"
   width="176"
   height="204"
   viewBox="0 0 176 204"
   sodipodi:docname="l56522.svg"
   inkscape:version="1.3 (0e150ed6c4, 2023-07-21)"
   xmlns:inkscape="http://www.inkscape.org/namespaces/inkscape"
   xmlns:sodipodi="http://sodipodi.sourceforge.net/DTD/sodipodi-0.dtd"
   xmlns="http://www.w3.org/2000/svg"
   xmlns:svg="http://www.w3.org/2000/svg">
  <defs
     id="defs1" />
  <sodipodi:namedview
     id="namedview1"
     pagecolor="#ffffff"
     bordercolor="#000000"
     borderopacity="0.25"
     inkscape:showpageshadow="2"
     inkscape:pageopacity="0.0"
     inkscape:pagecheckerboard="0"
     inkscape:deskcolor="#d1d1d1"
     showgrid="false"
     inkscape:zoom="2.4558824"
     inkscape:cx="87.952096"
     inkscape:cy="102"
     inkscape:window-width="1366"
     inkscape:window-height="697"
     inkscape:window-x="-8"
     inkscape:window-y="-8"
     inkscape:window-maximized="1"
     inkscape:current-layer="g1" />
  <g
     inkscape:groupmode="layer"
     inkscape:label="Image"
     id="g1">
    <path
       style="fill:#000000"
       d="m 63.549937,199.40223 c -0.32877,-0.32877 -0.35343,-1.2345 -0.0548,-2.01273 0.29864,-0.77823 0.0371,-2.02453 -0.58123,-2.76956 -0.84951,-1.02359 -0.75467,-1.66127 0.38812,-2.60971 1.31268,-1.08942 1.51233,-0.64488 1.51233,3.36733 0,4.63702 -0.15589,5.13322 -1.26443,4.02467 z m -1.82939,-20.12621 -1.40618,-9.72398 -5,-1.87407 c -4.63418,-1.73695 -5.20713,-1.75714 -7.83104,-0.27602 -3.82001,2.1563 -4.75561,2.06726 -15.34399,-1.46026 l -9.17997,-3.05831 -3.8225,2.37871 c -6.07167,3.77835 -6.32291,3.89957 -6.31479,3.04693 0.004,-0.44496 1.83582,-1.85314 4.0702,-3.12928 l 4.0625,-2.32027 -2.5702,-2.38199 c -1.41361,-1.31009 -2.57021,-3.00722 -2.57021,-3.7714 0,-0.83089 -2.43116,-2.12552 -6.0477695,-3.22054 -3.32628,-1.00712 -6.28043,-2.20757 -6.56478,-2.66766 -0.28436,-0.4601 0.85929,-1.61984 2.54145,-2.57721 1.68215,-0.95737 3.0613,-2.00694 3.06478,-2.33238 0.003,-0.32544 -1.79368,-1.13101 -3.99368,-1.79014 -2.78812,-0.83535 -4.00000001,-1.75736 -4.00000001,-3.04328 0,-2.1394 4.01423001,-5.07487 6.93983001,-5.07487 1.40693,0 2.6149395,-1.32751 4.0253495,-4.42356 l 2.01517,-4.42357 -2.86559,-33.326434 C 8.9745175,71.094543 8.3638575,59.706108 9.0082275,58.002717 c 0.60997,-1.612479 0.50185,-8.267684 -0.30515,-18.783727 -1.07217,-13.971479 -1.04648,-16.482387 0.18073,-17.664964 0.78681,-0.758186 12.6805595,-5.764575 26.4305595,-11.125308 l 25,-9.74678786 22.5,2.72787026 c 12.375,1.5003287 23.790193,3.3636881 25.367083,4.1407988 2.49651,1.2303064 3.68809,1.2066982 9.21913,-0.1826546 4.64836,-1.1676291 7.63434,-1.3626806 11.13292,-0.7272299 4.15609,0.7548732 4.82087,1.2130987 5.08692,3.5063613 0.27157,2.340752 -0.50539,3.088058 -6.89519,6.631995 -6.37574,3.536138 -6.93946,4.077077 -4.91753,4.718813 1.25605,0.398654 13.50596,2.412861 27.22203,4.476014 15.84128,2.382826 25.39397,4.257306 26.18746,5.138645 0.87507,0.971951 1.12,4.027585 0.81785,10.203373 l -0.43132,8.815916 -11.24883,9.960847 -11.24884,9.960847 -0.65207,17.223237 C 152.09534,96.749543 151.52636,111.925 151.18958,121 l -0.61234,16.5 -23.63143,23.78817 c -12.99729,13.08349 -24.70041,24.05894 -26.00692,24.3899 -1.454283,0.36838 -7.999173,-1.08739 -16.877253,-3.75398 -13.41415,-4.02904 -14.57643,-4.56988 -15.49724,-7.21131 -0.8583,-2.46213 -5.29365,-5.50249 -6.40536,-4.39078 -0.20788,0.20788 0.23158,4.49547 0.97657,9.52798 0.745,5.03251 1.04777,9.15002 0.67283,9.15002 -0.37494,0 -1.31449,-4.37579 -2.08789,-9.72398 z M 102.61437,182.8 c 0.81525,-0.81525 1.2,-5.54444 1.2,-14.75 V 154.5 l -5.750003,-0.0214 c -3.1625,-0.0118 -6.88062,-0.37124 -8.26249,-0.7988 -2.11045,-0.65298 -3.78124,0.17282 -10.44132,5.16071 l -7.92883,5.93808 -4.90731,-1.45732 c -2.69903,-0.80152 -5.14352,-1.22111 -5.43222,-0.93241 -1.15081,1.15081 0.71798,3.39329 3.38582,4.06288 4.02331,1.00976 5.33635,2.39056 5.33635,5.61169 0,1.55019 0.52679,3.14411 1.17065,3.54203 2.21748,1.37048 25.33368,8.28564 27.87935,8.34004 1.402503,0.03 3.090003,-0.4855 3.750003,-1.1455 z m 46.55118,-59.65644 c 0.3416,-7.50396 0.92004,-22.1774 1.28542,-32.607654 l 0.66433,-18.964094 -5.89857,5.257313 c -3.24422,2.891522 -6.98388,5.529708 -8.31037,5.862635 -1.32649,0.332927 -5.93556,0.06589 -10.24238,-0.593404 l -7.83058,-1.198726 -7.16191,5.714374 -7.16192,5.714375 0.64958,18.585811 c 0.35726,10.2222 0.65084,29.83189 0.65239,43.57709 l 0.003,24.99128 21.36505,-21.34772 21.36505,-21.34771 z M 42.814367,164.05902 c 0,-1.61754 0.36992,-3.16961 0.82205,-3.44904 0.45212,-0.27942 4.16462,0.55343 8.25,1.85079 4.08537,1.29735 7.57691,2.21296 7.75897,2.03468 1.23257,-1.207 -2.436,-4.24245 -6.41278,-5.30608 -2.6173,-0.70002 -5.26832,-1.96968 -5.89117,-2.82146 -0.99478,-1.36045 -1.78713,-1.16268 -6.51836,1.62695 -4.58738,2.70482 -6.012,3.08177 -9.60865,2.54242 -6.97517,-1.04599 -5.92656,1.11434 1.84371,3.79836 9.4087,3.24997 9.75623,3.24012 9.75623,-0.27662 z m 4.5,0.94098 c 0.99549,-1.1 1.32704,-2 0.73678,-2 -0.59026,0 -1.78501,-0.27314 -2.65499,-0.60699 -1.1931,-0.45784 -1.58179,0.0336 -1.58179,2 0,3.12291 1.0572,3.30625 3.5,0.60699 z m 27,-6.59067 c 0,-1.29106 -1.44117,-2.38181 -4.78967,-3.62508 -4.46001,-1.65597 -4.96213,-1.66537 -7.29544,-0.13653 -3.61802,2.37062 -2.62286,4.43667 3.08511,6.40498 4.11506,1.41902 5.35398,1.5011 7,0.46377 1.1,-0.69323 2,-2.09144 2,-3.10714 z m -48.99884,1.5888 c 0.34056,-0.55103 -0.53289,-1.43989 -1.94098,-1.97525 -1.4081,-0.53536 -2.56018,-1.65952 -2.56018,-2.49813 0,-0.83861 -0.70629,-1.52475 -1.56955,-1.52475 -2.47842,0 -1.30754,4.25984 1.56955,5.71023 3.0449,1.53498 3.70435,1.57716 4.50116,0.2879 z m 13.78868,-3.14679 4.21016,-2.14866 -4,-1.40783 c -3.90423,-1.37411 -6.94969,-1.3307 -11,0.15681 -1.60462,0.58931 -1.50578,0.32513 0.5,-1.33634 1.375,-1.13897 1.91095,-2.08085 1.19099,-2.09308 -0.71996,-0.0122 -1.02637,-0.47958 -0.68091,-1.03855 0.34547,-0.55897 1.04703,-0.75742 1.55902,-0.44098 1.35061,0.83471 1.14258,-0.93103 -0.27691,-2.35052 -1.24348,-1.24348 0.11532,-0.89886 16.3215,4.13951 6.95692,2.16286 7.85795,2.23905 10.44548,0.88331 l 2.8318,-1.48373 -6.44548,-1.99575 c -5.54255,-1.71616 -6.15318,-2.1288 -4.35893,-2.94552 1.54228,-0.70203 4.69675,-0.13886 12.09298,2.15897 9.82058,3.05102 15.46401,3.33891 11.71507,0.59761 -1.47999,-1.08219 -1.26027,-1.4665 1.9852,-3.47231 2.30036,-1.42169 5.32194,-2.28072 8.17402,-2.32383 2.48856,-0.0376 4.72339,-0.38998 4.9663,-0.78301 C 88.967527,139.94318 77.887127,137 73.397987,137 c -3.79784,0 -24.20909,-5.48041 -26.08362,-7.00344 -0.55,-0.44687 -3.65149,-1.50289 -6.8922,-2.34672 -7.38397,-1.92268 -8.32025,-2.79075 -6.74323,-6.25194 1.92188,-4.21806 0.48267,-3.99983 -1.68298,0.25519 -2.11908,4.1635 -1.8005,4.95039 2.81841,6.96161 l 2.5,1.08858 -4.27196,2.17989 c -3.37711,1.72326 -5.36709,2.06759 -9.5,1.6438 -5.14672,-0.52775 -5.18137,-0.51338 -2.22804,0.92337 1.65,0.8027 3.7875,1.47975 4.75,1.50456 1.96858,0.0507 2.44786,2.03259 0.5,2.06751 -1.71705,0.0308 -13.56692,5.92724 -11.96788,5.95518 0.70517,0.0123 2.89762,-0.65259 4.87213,-1.47759 4.91884,-2.05522 5.30325,-1.89103 2.0743,0.886 -2.36564,2.03455 -2.52771,2.47709 -1.10687,3.02232 3.06939,1.17783 0.74328,1.61487 -2.52712,0.4748 -2.65044,-0.92395 -3.93511,-0.80783 -7.16216,0.64736 -2.1628195,0.9753 -3.9323995,2.09644 -3.9323995,2.49143 0,0.39499 2.00075,1.27834 4.4461095,1.963 4.05822,1.13623 4.75613,1.05322 8,-0.9516 1.95464,-1.20804 3.55389,-1.70973 3.55389,-1.11487 0,0.59486 -0.765,1.08156 -1.7,1.08156 -2.18854,0 -0.51062,1.66967 2.2,2.18919 1.14462,0.21937 1.88882,1.05318 1.74004,1.94954 -0.16576,0.99872 0.92128,1.94504 3,2.61167 4.90564,1.57317 6.45218,1.44734 11.0498,-0.89906 z m -15.78222,-8.81665 c -0.64361,-2.93033 -0.32119,-3.62872 3.74238,-8.10637 1.611,-1.77515 5.75,-2.72725 5.75,-1.32268 0,0.33311 -1.12801,1.94621 -2.50668,3.58468 -1.37868,1.63846 -2.2346,3.41928 -1.90204,3.95737 0.61962,1.00256 -2.28957,4.85231 -3.66681,4.85231 -0.42106,0 -1.05864,-1.33439 -1.41685,-2.96531 z m 11.52757,-4.96895 c -0.56935,-1.06384 -1.03519,-2.42967 -1.03519,-3.03518 0,-1.85789 3.68938,0.67361 4.28147,2.93777 0.69316,2.65063 -1.83918,2.72662 -3.24628,0.0974 z m 5.24296,0.68426 c -2.48769,-3.21657 -2.56465,-3.97571 -0.3312,-3.26684 2.68054,0.85077 7.13307,-0.14301 6.79719,-1.51709 -0.13427,-0.54933 1.66836,-1.86941 4.00586,-2.93353 2.3375,-1.06412 4.25,-1.59716 4.25,-1.18454 0,0.41262 -1.6875,1.37948 -3.75,2.14858 -2.55339,0.95215 -3.19158,1.51829 -2,1.77421 2.17184,0.46646 2.26818,1.81639 0.18662,2.61516 -0.85986,0.32996 -1.31716,0.99831 -1.01623,1.48523 0.30093,0.48692 -0.85179,1.1651 -2.56162,1.50707 -4.1982,0.83964 -4.46894,0.80916 -5.58062,-0.62825 z m 13.72185,-3.22968 c 0,-0.26382 1.8,-1.39796 4,-2.52032 2.2,-1.12236 4,-1.66485 4,-1.20554 0,0.45932 -1.59026,1.59346 -3.53392,2.52033 -3.73864,1.78283 -4.46608,1.97919 -4.46608,1.20553 z m 5,17.47968 c 0,-0.55 -0.70155,-1 -1.55901,-1 -0.85746,0 -1.28091,0.45 -0.94099,1 0.33992,0.55 1.04148,1 1.55902,1 0.51754,0 0.94098,-0.45 0.94098,-1 z m 24.60864,-4.69287 c 5.37666,-3.94782 6.39136,-5.16621 6.39136,-7.67431 v -2.98145 l -2.25,2.10538 c -1.2375,1.15796 -4.0865,3.8239 -6.33111,5.92431 -3.7118,3.47335 -6.22276,7.31894 -4.77887,7.31894 0.31749,0 3.45337,-2.11179 6.96862,-4.69287 z m -24.14865,0.60667 c 4.46186,-2.09732 7.75433,-4.9138 5.74425,-4.9138 -0.57237,0 -1.77087,-0.28021 -2.66334,-0.62268 -1.06302,-0.40792 -1.52236,-0.14925 -1.33179,0.75 0.16676,0.78692 -1.52271,2.2151 -3.95911,3.3468 -2.3375,1.08577 -4.25,2.32327 -4.25,2.75 0,1.25972 1.74582,0.9056 6.45999,-1.31032 z m 17.13179,-1.1638 c 1.30552,-1.2375 2.38144,-3.0375 2.39095,-4 0.0102,-1.02809 0.77838,-1.75 1.86229,-1.75 1.01475,0 2.6595,-0.9 3.65498,-2 1.75411,-1.93827 1.74664,-2 -0.24218,-2 -2.34992,0 -8.25782,4.80962 -8.25782,6.72268 0,0.70253 -0.3375,1.18621 -0.75,1.07485 -0.4125,-0.11136 -2.55,0.17 -4.75,0.62525 l -4,0.82772 3.5,1.29867 c 1.925,0.71427 3.66158,1.33291 3.85906,1.37475 0.19748,0.0418 1.4272,-0.93642 2.73272,-2.17392 z m -34.09178,-1.92262 c -6.59442,-1.97856 -8.5,-2.21719 -8.5,-1.06442 0,1.16193 10.22578,3.90277 12.5,3.3504 1.38021,-0.33523 0.14062,-1.04364 -4,-2.28598 z m 61.272363,-17.79791 c 0.14981,-10.70879 0.0954,-19.93379 -0.12096,-20.5 -0.23039,-0.60301 -2.91047,-0.89021 -6.469713,-0.6933 l -6.07639,0.33616 0.53003,19.16384 c 0.29152,10.5401 0.7128,19.75002 0.93617,20.46648 0.28276,0.9069 2.00448,1.2107 5.66732,1 L 103.31437,152.5 Z m -26.644803,12.30681 c 1.24448,-1.5086 1.16267,-1.55194 -0.87756,-0.46482 -2.32695,1.23991 -2.89993,2.12854 -1.37244,2.12854 0.48265,0 1.49515,-0.74867 2.25,-1.66372 z m -65.12756,-2.3883 c 0,-0.57861 1.3841,-1.53452 3.07577,-2.12424 3.36136,-1.17177 2.93309,-2.20989 -1.32577,-3.21368 -1.71025,-0.4031 -2.75,-0.23739 -2.75,0.43828 0,0.62439 -0.8344995,0.82157 -1.9622195,0.46365 -2.02973,-0.64421 -6.03778,0.93473 -6.03778,2.37853 0,0.78956 5.17295,2.79692 7.7499995,3.00739 0.6875,0.0562 1.25,-0.37132 1.25,-0.94993 z m 78,-5.76514 c 0,-1.43935 -1.57722,-2.18898 -7.58605,-3.60557 -8.8339,-2.08259 -13.32683,-2.52725 -14.03057,-1.38857 -0.76636,1.24 -3.38338,0.96513 -3.38338,-0.35537 0,-0.64166 0.2961,-0.87057 0.65799,-0.50867 0.81719,0.81718 3.34201,-1.18266 3.34201,-2.6471 0,-0.76451 -0.31569,-0.76187 -1.08663,0.009 -0.78218,0.78218 -2.49225,0.71584 -6.10344,-0.23677 -5.28163,-1.39327 -8.37389,-3.22729 -3.44326,-2.0422 6.78718,1.63131 8.70238,1.77993 9.91958,0.76974 0.93659,-0.7773 3.99068,-0.38614 11.12036,1.42428 5.40604,1.37274 10.06552,2.25953 10.3544,1.97064 0.74255,-0.74254 0.52014,-0.80685 -27.82492,-8.04466 -27.5994,-7.04734 -26.93609,-6.90629 -26.93609,-5.72767 0,0.43996 2.62686,1.3425 5.83747,2.00564 3.21061,0.66314 8.1932,1.90528 11.07244,2.76033 4.50141,1.33677 5.05809,1.76774 3.9727,3.07556 -1.01652,1.22484 -1.01575,1.91571 0.004,3.54856 1.03606,1.659 1.02512,1.94633 -0.0602,1.58055 -0.72954,-0.24589 -1.34359,-1.7308 -1.36456,-3.29981 -0.0364,-2.72325 -0.42224,-2.95763 -8.5,-5.16339 -4.65403,-1.27086 -9.02437,-2.09903 -9.71187,-1.84039 -0.6875,0.25864 -1.25,1.59204 -1.25,2.9631 0,2.09384 0.68025,2.6686 4.25,3.59091 2.3375,0.60393 5.0375,1.3266 6,1.60593 1.02429,0.29726 1.77629,-0.0384 1.81339,-0.80952 0.0349,-0.72457 0.43851,-0.39099 0.897,0.74129 0.6348,1.5677 3.42195,2.81223 11.68661,5.21836 5.96913,1.73784 12.65298,3.15606 14.85298,3.15161 2.2,-0.004 6.25,0.64454 9,1.44221 6.58115,1.90893 6.5,1.91128 6.5,-0.18802 z m -71.81666,-1.39951 c -0.65084,-0.65083 -1.18334,-2.44333 -1.18334,-3.98333 0,-3.04015 -1.41704,-3.76153 -2.39301,-1.21821 -1.33841,3.48785 -0.64925,6.27236 1.64301,6.63847 2.87061,0.45849 3.42024,0.05 1.93334,-1.43693 z m 71.26666,-2.65066 C 88.300467,132.25264 73.164547,128 70.996267,128 c -0.65004,0 -1.1819,0.70532 -1.1819,1.56739 0,1.03086 0.59904,1.38338 1.75,1.02984 0.9625,-0.29564 4.9,0.30841 8.75,1.34235 7.99222,2.14635 10.3364,2.45885 8.95,1.19309 z m -58.17233,-1.77625 c 3.06716,-1.58609 3.10123,-1.67211 0.9742,-2.45895 -1.43204,-0.52975 -3.52608,-0.2574 -5.978,0.77748 -3.3397,1.4096 -3.54377,1.6844 -1.77387,2.38866 2.88627,1.14847 3.26578,1.10887 6.77767,-0.70719 z m -9.27767,-0.17499 c 0,-0.45022 1.4625,-1.57968 3.25,-2.50992 2.55948,-1.33199 2.71883,-1.5608 0.75,-1.07692 -2.76676,0.67998 -7.18292,4.40541 -5.22222,4.40541 0.67222,0 1.22222,-0.36836 1.22222,-0.81857 z M 19.804057,126.25 c -0.0165,-2.79954 -1.9243,-25.34985 -2.52919,-29.895285 -0.39867,-2.995809 -1.09359,-4.287011 -2.50607,-4.656381 -2.36383,-0.618157 -2.36065,-0.730204 -0.55828,19.652836 0.92554,10.46699 1.72512,15.11199 2.70853,15.73469 2.10145,1.33063 2.89642,1.10031 2.88501,-0.83586 z m 5.54243,-0.69897 c 3.86898,-1.61657 4.12292,-2.99056 2.83323,-15.32973 -0.57159,-5.46867 -0.89456,-6.14143 -3.25,-6.76998 -1.43844,-0.38385 -2.16535,-0.86114 -1.61535,-1.06064 0.55,-0.1995 15.5125,3.37335 33.25,7.93968 31.30252,8.05849 32.25,8.23817 32.25,6.11585 0,-1.93463 -1.22226,-2.51052 -10.6084,-4.99837 -9.49637,-2.51706 -10.70161,-2.64527 -11.49753,-1.22303 -0.79255,1.41621 -2.24235,1.22813 -13.34707,-1.73148 -13.66925,-3.64309 -14.547,-4.0008 -14.547,-5.92832 0,-0.83535 -3.70108,-2.24501 -10.12071,-3.85475 l -10.12071,-2.537801 0.60236,6.663771 c 0.3313,3.66507 0.8975,10.60127 1.25823,15.41377 0.36073,4.8125 0.83344,8.75 1.05047,8.75 0.21703,0 1.95515,-0.65204 3.86248,-1.44897 z m 64.46788,-1.92939 c 0,-3.06252 -0.35058,-3.47023 -3.75,-4.36104 -29.71299,-7.78617 -56.4033,-14.44063 -56.70593,-14.138 -0.21005,0.21005 -0.0779,3.75589 0.29367,7.87965 l 0.67557,7.49775 1.95896,-3.25 c 1.07742,-1.7875 2.42443,-3.24519 2.99334,-3.23931 0.56892,0.006 12.05939,2.89514 25.53439,6.42059 13.475,3.52545 25.5125,6.44564 26.75,6.48931 1.905,0.0672 2.25,-0.4386 2.25,-3.29895 z m -1.55,-12.53377 c -1.23481,-1.18559 -68.5149,-18.356301 -69.20837,-17.662835 -0.76407,0.76407 -0.77494,0.76095 34.75837,9.975145 33.43539,8.67018 36.09034,9.26264 34.45,7.68769 z m -22.45,-1.96407 c 0,-0.71063 -23.11267,-7.1238 -25.67375,-7.1238 -4.57319,0 18.44341,7.60457 23.92375,7.90429 0.9625,0.0526 1.75,-0.29858 1.75,-0.78049 z m 36.847573,-0.008 c 1.03914,-0.65854 1.18891,-2.54708 0.65437,-8.25135 l -0.69319,-7.397353 h -5.904373 -5.90438 V 101.73333 110 l 5.25,-0.0153 c 2.8875,-0.008 5.856403,-0.39962 6.597573,-0.86932 z M 88.814367,107.5 c 0,-0.88435 -0.92347,-1.50628 -2.25,-1.51531 -1.2375,-0.008 -2.85833,-0.40081 -3.60184,-0.87196 -1.06438,-0.67449 -0.88048,-1.18681 0.8648,-2.40925 1.21916,-0.85393 2.83999,-1.31341 3.60185,-1.02105 0.89403,0.34307 1.38519,-0.17345 1.38519,-1.45673 0,-1.518143 -1.0505,-2.25279 -4.44282,-3.106985 -5.98316,-1.506577 -5.67554,-1.572289 -10.7392,2.294096 l -4.46962,3.412809 -13.42418,-3.512552 c -14.2363,-3.725054 -21.04983,-7.251807 -18.93447,-9.800668 0.89425,-1.077501 1.9605,-1.080715 5.98886,-0.01805 2.6955,0.711061 5.14216,1.051596 5.43701,0.756745 0.29485,-0.294851 1.10947,-0.09632 1.81026,0.441189 0.70079,0.537504 3.97416,1.537412 7.27416,2.222016 3.3,0.684604 7.80672,2.510944 10.01492,4.058533 l 4.01492,2.813797 2.77693,-2.214242 2.77692,-2.214243 -12.29184,-2.745723 c -6.76052,-1.510152 -14.54185,-3.388113 -17.29185,-4.17325 -9.18551,-2.622507 -10.65438,-2.587748 -19,0.449615 -6.78838,2.470614 -7.62137,3.009617 -5.5,3.558915 45.38488,11.751728 63.73845,16.423328 64.75,16.481008 0.6875,0.0392 1.25,-0.60371 1.25,-1.42871 z m 0,-3.5 c 0,-0.55 -0.9,-1 -2,-1 -1.1,0 -2,0.45 -2,1 0,0.55 0.9,1 2,1 1.1,0 2,-0.45 2,-1 z m -22.31293,-5.305556 c -1.66855,-1.301674 -7.93241,-3.483855 -15.39667,-5.363839 -12.54007,-3.1584 -12.57542,-3.161288 -10.18706,-0.832417 2.26829,2.2118 21.33623,8.242622 26.39666,8.348752 1.74089,0.0365 1.63557,-0.24236 -0.81293,-2.152496 z m 22.31293,-7.15926 c 0,-3.24856 -0.47671,-4.705782 -1.75,-5.349388 -0.9625,-0.486515 -8.50612,-2.370209 -16.76361,-4.185987 l -15.01361,-3.301416 -7.83257,2.900804 -7.83257,2.900803 22.84618,5.648696 c 12.5654,3.106783 23.63368,5.694283 24.59618,5.75 1.42049,0.08223 1.75,-0.739381 1.75,-4.363512 z M 101.4968,90.930639 c 4.42225,-1.681334 13.5978,-9.13941 12.26073,-9.965766 -0.83622,-0.516812 -0.85005,-0.904386 -0.0499,-1.39889 C 114.88364,78.839156 115.28325,70 114.14008,70 c -0.37086,0 -3.9229,3.15 -7.89342,7 -6.262763,6.072667 -7.703243,7 -10.873493,7 -3.42869,0 -81.8794,-17.462073 -83.80931,-18.654826 -0.49036,-0.303056 -0.74709,0.957802 -0.57052,2.801907 0.24848,2.595129 0.82955,3.42514 2.57103,3.67247 1.51338,0.214934 2.25,-0.194302 2.25,-1.25 0,-2.534361 3.54522,-2.004277 36.5,5.45751 38.32219,8.677101 37.43497,8.397771 38.15813,12.013581 0.76048,3.802376 5.41516,5.02259 11.024303,2.889997 z M 16.245717,82.75 C 15.451627,74.403427 15.300037,74 12.957957,74 c -1.51806,0 -1.68885,0.855442 -1.34764,6.75 0.26829,4.634655 0.89146,7.14173 1.98853,8 2.91592,2.281224 3.3427,1.3138 2.64687,-6 z m 19.20405,1.75 c 8.71585,-3.025 16.05346,-5.5 16.3058,-5.5 0.25234,0 0.0313,-0.386211 -0.4912,-0.858246 -0.5225,-0.472035 -3.69004,-1.418148 -7.03897,-2.102472 -5.56961,-1.138098 -6.42721,-1.071673 -10.05434,0.778749 -3.43013,1.749923 -4.6329,1.883708 -8.91102,0.991178 -2.72012,-0.567489 -5.80016,-1.769215 -6.84453,-2.670503 -1.84192,-1.58956 -1.87967,-1.473756 -1.25869,3.861294 0.35209,3.025 0.64408,6.7375 0.64886,8.25 0.005,1.5125 0.41108,2.75 0.90289,2.75 0.49181,0 8.02535,-2.475 16.7412,-5.5 z m 64.3921,-3.143761 c 3.520863,-2.340724 14.972503,-13.615618 14.972503,-14.741413 0,-0.518622 -3.09685,2.046809 -6.88189,5.700959 -9.003923,8.69255 -10.379913,9.170433 -20.475783,7.111263 -8.28091,-1.688987 -13.3613,-3.277712 -10.64233,-3.32804 0.825,-0.01527 4.2,0.624176 7.5,1.420993 3.3,0.796816 7.96925,1.455787 10.37612,1.464378 4.09524,0.01462 4.85648,-0.453982 11.860603,-7.301138 l 7.48449,-7.316759 -13.72595,-2.632643 c -7.549273,-1.447954 -14.461553,-3.258974 -15.360613,-4.02449 -2.00901,-1.710606 -30.1249,-7.119094 -31.23542,-6.008574 -0.43977,0.439764 6.17928,2.122478 14.70899,3.739362 8.52971,1.616885 15.76364,3.352517 16.0754,3.856961 0.31176,0.504443 -0.27701,0.664459 -1.30839,0.35559 -1.03137,-0.30887 -8.17523,-1.731262 -15.87523,-3.160873 -7.7,-1.42961 -15.35,-3.198223 -17,-3.930251 -1.65,-0.732027 -8.56341,-2.339932 -15.36314,-3.573121 l -12.36314,-2.242162 -6.13686,6.176813 c -5.86692,5.905118 -6.05147,6.240595 -4.19573,7.626859 1.06762,0.797526 2.64262,1.452557 3.5,1.455624 2.30865,0.0083 9.31775,2.068876 8.79962,2.587013 -0.24574,0.245739 -3.49084,-0.259162 -7.21133,-1.122002 -7.01481,-1.626843 -9.5748795,-1.359688 -5.3625,0.559601 3.30025,1.503696 78.56775,18.751033 82.36058,18.872697 1.66512,0.05341 4.14012,-0.642578 5.5,-1.546647 z m -49.8424,-14.341864 c -6.7732,-1.545968 -12.50033,-2.996274 -12.72696,-3.222902 -0.22663,-0.226629 1.78219,-2.573299 4.46404,-5.214824 l 4.8761,-4.802772 14.2525,3.098032 c 7.83887,1.703917 14.46931,3.314844 14.7343,3.579838 0.92712,0.927116 -9.304,9.468391 -11.28508,9.421161 -1.1,-0.02622 -7.5417,-1.312565 -14.3149,-2.858533 z m 20.26001,-1.958163 c 3.81904,-3.911048 3.8311,-3.94848 1.45295,-4.509043 -1.31893,-0.31089 -7.30632,-1.658327 -13.30531,-2.994303 l -10.90726,-2.429048 -4.36814,3.579362 c -2.40247,1.96865 -4.0978,3.853291 -3.76739,4.188092 0.59932,0.607273 22.56227,5.767949 25.4971,5.991098 0.85087,0.0647 3.28,-1.657075 5.39805,-3.826158 z m 84.751443,0.801502 c 9.5169,-8.328257 17.66765,-15.761015 18.11279,-16.517239 0.44513,-0.756224 0.67013,-2.937415 0.5,-4.847091 l -0.30934,-3.472138 -16,13.032338 c -8.8,7.167787 -17.1055,13.310131 -18.45666,13.649654 -2.10817,0.529745 -9.89325,-0.399928 -20.3421,-2.429196 l -2.79876,-0.543547 0.29876,6.884753 0.29876,6.884752 6,1.141004 c 3.3,0.627552 8.11345,1.190052 10.69655,1.25 4.67374,0.108466 4.78062,0.03543 22,-15.03329 z M 137.12424,74.5 c 0.006,-3.3 0.1923,-4.529441 0.41486,-2.732091 0.22256,1.79735 0.21797,4.49735 -0.0102,6 -0.22818,1.50265 -0.41027,0.03209 -0.40466,-3.267909 z M 32.737297,75.586836 c 2.69103,-1.490826 2.43317,-1.661423 -4.67293,-3.091634 -2.70607,-0.544638 -3.26321,-0.34793 -3.32894,1.175343 -0.0454,1.050855 -0.29361,1.297466 -0.58334,0.579455 -0.27741,-0.6875 -1.16844,-1.25 -1.98007,-1.25 -0.81162,0 -1.19757,-0.45 -0.85765,-1 0.33992,-0.55 0.10848,-1 -0.5143,-1 -0.62279,0 -0.98327,0.774087 -0.80107,1.720193 0.1943,1.008883 1.98202,2.217621 4.32333,2.923148 5.13519,1.547431 5.52448,1.544817 8.41497,-0.05651 z M 136.81437,64 c 0,-1.1 -0.3375,-2.001913 -0.75,-2.004252 -1.96584,-0.01114 -28.63272,-5.045136 -29.07644,-5.48885 -0.89224,-0.892246 1.72803,-0.561135 15.95062,2.015601 11.1911,2.027513 14.36009,2.291265 16.14952,1.34411 3.43746,-1.819457 8.7263,-6.01096 8.7263,-6.915747 0,-1.940535 -4.81028,-1.321469 -8.5,1.093921 -2.2,1.440177 -4.78394,2.903774 -5.74208,3.252437 -2.18037,0.793424 -52.173053,-8.006145 -56.271623,-9.904769 -1.65753,-0.767839 -5.25753,-4.279792 -8,-7.80434 -2.74246,-3.524548 -6.1113,-7.082522 -7.4863,-7.906609 -1.375,-0.824087 -11.725,-3.126558 -23,-5.116602 -13.37475,-2.360651 -20.88522,-4.129433 -21.60832,-5.088951 -0.89196,-1.183596 -1.7216,-1.256897 -4.25,-0.375494 -1.72792,0.602357 -3.1416795,1.447211 -3.1416795,1.877452 0,0.430241 4.9499995,1.605555 10.9999995,2.61181 6.05,1.006255 11,2.120314 11,2.475688 0,0.559331 -5.45565,-0.192015 -18.90394,-2.603429 l -3.4039295,-0.61036 0.6367295,8.256986 c 0.3502,4.541343 1.02472,8.644979 1.49894,9.119193 0.47421,0.474213 5.87386,1.74718 11.99922,2.828814 6.12536,1.081635 14.15949,2.600169 17.85361,3.374522 6.02752,1.263474 6.83603,1.244552 7.88094,-0.184446 1.05388,-1.441268 2.81415,-1.281931 18.5514,1.679237 17.16891,3.230555 19.88703,4.127244 19.88703,6.560599 0,0.695184 1.87045,1.519087 4.25,1.872065 2.3375,0.346738 12.125003,2.173328 21.750003,4.059088 21.21782,4.157062 23,4.27967 23,1.582326 z m 20.4991,-12.233926 C 171.74066,40.109538 176.00055,35.852845 174.6201,34.4724 c -0.20728,-0.207283 -2.94135,1.657522 -6.07571,4.144012 -3.13437,2.48649 -6.10197,4.271745 -6.59468,3.967234 -0.49271,-0.304511 -4.35633,2.829131 -8.58584,6.963649 -4.2295,4.134519 -9.45839,8.68757 -11.61975,10.117892 -2.36767,1.566847 -3.92975,3.385296 -3.92975,4.574688 0,1.366648 0.47384,1.792271 1.5399,1.383188 0.84694,-0.325003 8.92859,-6.560648 17.9592,-13.856989 z M 136.49566,53.75 c 1.81777,-1.2375 3.30812,-2.507156 3.31188,-2.821459 0.004,-0.314302 -6.71059,-1.135071 -14.92077,-1.82393 -11.32915,-0.95055 -15.44782,-0.974058 -17.08565,-0.09752 -1.18692,0.635223 -1.86528,1.455991 -1.50746,1.82393 0.6568,0.675371 21.36842,4.880964 24.95883,5.068011 1.06597,0.05553 3.42539,-0.911531 5.24317,-2.149032 z M 15.856757,45.603635 c -2.24565,-0.493 -4.26997,-0.709387 -4.4985,-0.480858 -0.22852,0.228528 -0.15617,2.348986 0.1608,4.712128 l 0.57629,4.296621 3.9222,-3.815763 L 19.939737,46.5 Z M 159.10159,43 c 0.45695,0 0.5527,-0.45 0.21278,-1 -0.33992,-0.55 -1.51069,-1 -2.60172,-1 -2.55307,0 -13.36293,7.950409 -12.24516,9.006052 2.17338,2.052604 4.80999,1.26103 9.17995,-2.756052 2.54284,-2.3375 4.9972,-4.25 5.45415,-4.25 z m -53.40065,5.822893 c 3.74201,-2.153627 3.95718,-2.162647 19.95114,-0.836351 8.89258,0.737416 16.41255,1.096535 16.71104,0.798044 0.29849,-0.298492 -2.06537,-0.83529 -5.25302,-1.192886 -12.26515,-1.375921 -13.29573,-1.661136 -13.29573,-3.679598 0,-2.122603 1.60112,-2.608732 2.24363,-0.681205 0.27572,0.827156 2.02508,0.175004 5.33334,-1.988236 l 4.92303,-3.219134 -3.625,-0.01176 c -5.69082,-0.01847 -9.875,-1.135702 -9.875,-2.636763 0,-0.75625 0.47656,-1.375 1.05902,-1.375 0.58246,0 0.7809,0.45 0.44098,1 -1.05807,1.711999 3.05068,1.094505 4.99044,-0.75 1.38454,-1.316547 3.09976,-1.662485 6.92497,-1.39667 2.79652,0.194332 4.77707,0.03681 4.40121,-0.350044 -0.37585,-0.386855 -4.20085,-0.826273 -8.5,-0.976484 -4.29914,-0.15021 -14.87548,-0.624461 -23.50298,-1.05389 l -15.686353,-0.78078 -10.10032,4.844253 c -6.99167,3.353307 -10.00995,5.313462 -9.80672,6.368766 0.56358,2.926405 6.61792,5.811128 15.67311,7.467798 l 9.00497,1.64748 4.746623,-3.010214 c 4.06871,-2.580302 5.70995,-3.010215 11.49181,-3.010215 3.70986,0 7.00771,0.424735 7.32854,0.943857 0.35708,0.577766 -2.10608,0.718385 -6.35054,0.362545 -6.02774,-0.505344 -7.40309,-0.291323 -10.52432,1.637703 -1.97474,1.220458 -3.59044,2.632312 -3.59044,3.137454 0,1.337536 0.67983,1.162429 4.88657,-1.258666 z M 54.314367,49 c -0.33992,-0.55 -1.23992,-1 -2,-1 -0.76008,0 -1.66008,0.45 -2,1 -0.35191,0.569401 0.50929,1 2,1 1.49072,0 2.35191,-0.430599 2,-1 z m 94.017873,-5.75 3.98213,-2.75 -7.18798,-0.881369 c -6.89176,-0.845049 -7.38628,-0.762882 -12,1.993874 l -4.81202,2.875244 4,0.61422 c 8.7872,1.34932 11.90408,0.98895 16.01787,-1.851969 z m 20.41549,-6.386014 c 2.85704,-2.274807 4.82832,-4.463997 4.38063,-4.864865 -0.4477,-0.400868 -11.96445,-2.380213 -25.59279,-4.398545 -13.62833,-2.018332 -25.82846,-4.147954 -27.11138,-4.732494 -1.8029,-0.821456 -3.07141,-0.680743 -5.58611,0.619657 -1.87413,0.969151 -2.88029,2.055684 -2.37319,2.562777 0.48417,0.484177 11.78588,2.553665 25.1149,4.598864 24.31286,3.730554 26.30753,4.385332 22.63763,7.431081 -1.45006,1.20344 -1.42706,1.392206 0.25,2.05216 2.81885,1.109271 2.74554,1.138209 8.28031,-3.268635 z M 90.330607,29.204231 c -0.32809,-0.353591 -21.5303,4.476502 -22.085,5.031203 -0.21188,0.211877 0.28288,1.339092 1.09945,2.504921 l 1.48469,2.119691 9.88765,-4.680023 c 5.4382,-2.574013 9.76415,-4.813119 9.61321,-4.975792 z m 67.910763,8.274298 c 1.05985,-0.801825 1.73485,-1.646898 1.5,-1.87794 -0.23485,-0.231042 -6.60813,-0.746079 -14.16284,-1.144527 -11.03773,-0.582147 -14.06592,-0.452554 -15.41624,0.659744 -1.4696,1.210548 -0.43642,1.523887 8.23584,2.497739 13.90649,1.56163 17.63414,1.536266 19.84324,-0.135016 z M 79.105677,29.526417 c 7.94356,-1.876947 12.00511,-2.335605 16.83866,-1.901541 l 6.370033,0.572042 14.81487,-8.200252 c 8.14818,-4.510139 14.57473,-8.440402 14.28121,-8.733917 -0.29351,-0.293516 -1.71175,0.238247 -3.15164,1.181695 -1.43988,0.943449 -2.83508,1.49825 -3.10044,1.232892 -0.26536,-0.265358 0.88952,-1.292923 2.56639,-2.283476 3.53634,-2.0889673 2.49671,-3.3545559 -2.77535,-3.3785472 -4.36414,-0.01986 -21.36,4.6151002 -25.457593,6.9425702 -1.7476,0.99265 -7.45245,2.791491 -12.67745,3.997425 -10.26023,2.368069 -17,4.832295 -17,6.215618 0,0.476948 1.19899,0.56625 2.66443,0.19845 2.20548,-0.553541 2.55538,-0.384575 2.03138,0.980948 -0.77312,2.014727 -1.43313,2.034364 8.09251,-0.240771 6.21312,-1.483964 9.01311,-1.690859 13.02202,-0.962216 4.542443,0.825614 5.660673,0.647676 10.115103,-1.609553 6.80427,-3.447987 7.69733,-3.174261 1.57456,0.482612 -4.62894,2.764672 -5.4917,2.940257 -11.625673,2.365988 -5.28855,-0.495121 -8.92111,-0.0728 -18,2.092696 -6.25588,1.492149 -11.56183,2.894781 -11.79099,3.116959 -0.96313,0.933754 3.37213,0.254442 13.20797,-2.069622 z m -10.99275,-1.253703 c 1.91701,-1.082112 -1.80653,-3.105734 -6.88135,-3.739792 -3.9175,-0.489458 -5.9752,-0.314715 -7.07873,0.601134 -3.02336,2.509163 9.91996,5.419221 13.96008,3.138658 z m 49.997983,0.677811 c -2.31191,-0.456689 -5.12441,-1.323217 -6.25,-1.925618 -1.52721,-0.817339 -2.6175,-0.769148 -4.29654,0.189909 -2.08415,1.190454 -1.8446,1.328452 3.25,1.872187 8.66124,0.924396 12.32053,0.855951 7.29654,-0.136478 z M 55.423447,23.012667 c 6.58353,-3.338559 8.22963,-3.728174 6.39092,-1.512667 -0.88377,1.064878 -0.91349,1.5 -0.10246,1.5 1.71145,0 18.84362,-8.772168 19.63594,-10.054168 0.37766,-0.611064 -0.71288,-0.387301 -2.42341,0.497251 -1.71054,0.884553 -3.11007,1.228363 -3.11007,0.764024 0,-0.46434 1.46185,-1.536572 3.24855,-2.382738 l 3.24854,-1.538484 -10.49854,-1.3284526 c -5.7742,-0.7306491 -12.08061,-1.347246 -14.01424,-1.3702154 -3.26636,-0.038801 -36.97729,12.218604 -36.98218,13.446842 -0.002,0.585686 21.91393,4.654073 26.10695,4.846318 1.435,0.06579 5.26,-1.224677 8.5,-2.86771 z m 18.52063,-2.078143 c 3.33997,-1.686012 5.84767,-3.290476 5.57267,-3.565476 -0.54055,-0.540555 -12.70238,5.343274 -12.70238,6.145347 0,0.878008 0.98766,0.520627 7.12971,-2.579871 z m 13.59946,-3.538691 c -0.33229,-0.332291 -1.19479,-0.367818 -1.91667,-0.07895 -0.79773,0.319226 -0.56077,0.556183 0.60417,0.604167 1.05417,0.04342 1.64479,-0.192928 1.3125,-0.52522 z m 3.59499,-2.931733 c 7.10055,-2.010548 8.75279,-1.244047 2.01048,0.932697 -2.65905,0.85847 -3.48464,1.329888 -1.83464,1.047594 7.84164,-1.341601 10.561273,-4.132045 5.42586,-5.567128 -5.09548,-1.4239244 -9.37433,-0.859412 -12.17586,1.606372 -3.1054,2.733246 -3.63071,4.908193 -1,4.140367 0.9625,-0.280925 4.37087,-1.252881 7.57416,-2.159902 z M 106.31437,10.03705 C 109.47256,8.7384358 107.20071,8.2585747 84.896677,5.5131935 61.681017,2.6556011 60.428327,2.6065007 56.314367,4.3928777 l -3,1.3026698 4.84567,0.1176483 c 2.66511,0.064707 8.36645,0.5997111 12.66963,1.1888989 4.30319,0.5891878 12.3988,1.2284073 17.99025,1.4204879 5.65798,0.1943659 10.66032,0.8432872 11.280363,1.4633273 1.2796,1.2796011 3.3474,1.3298941 6.21409,0.1511401 z M 3.8143675,172 c 0.58871,-1.1 1.45639,-2 1.9282,-2 0.4718,0 1.13606,-0.72506 1.47612,-1.61125 0.50969,-1.32822 0.13327,-1.49232 -2.14301,-0.93419 -2.59115,0.63533 -2.65825,0.57214 -1.08885,-1.0255 1.85901,-1.89245 4.82754,-1.29714 4.82754,0.96813 0,0.80297 -0.675,2.13495 -1.5,2.95995 -1.92791,1.92791 -1.8884,2.39471 0.25,2.95353 0.9625,0.25153 0.27167,0.50953 -1.53518,0.57333 -2.98766,0.10549 -3.18824,-0.0651 -2.21482,-1.884 z"
       id="path1" />
  </g>
</svg>
